<svg xmlns="http://www.w3.org/2000/svg" version="1.1" xmlns:xlink="http://www.w3.org/1999/xlink"
    width="1000" height="999" viewBox="0 0 1000 999">
    <g transform="matrix(1,0,0,1,-0.215743440233382,-0.21552769679306039)">
        <svg viewBox="0 0 343 343" height="999" width="1000" xmlns="http://www.w3.org/2000/svg"
            xmlns:xlink="http://www.w3.org/1999/xlink">
            <g transform="matrix(1,0,0,1,0.0740000000000407,0.07400000000001228)">
                <svg viewBox="0 0 342.85155851775386 342.85155851775386" height="342.85155851775386"
                    width="342.85155851775386">
                    <g>
                        <path d="M0 171.426c0-94.676 76.75-171.426 171.426-171.426 94.676 0 171.426 76.75 171.426 171.426 0 94.676-76.75 171.426-171.426 171.426-94.676 0-171.426-76.75-171.426-171.426zM171.426 332.128c88.754 0 160.703-71.949 160.702-160.702 0-88.754-71.949-160.703-160.702-160.703-88.754 0-160.703 71.949-160.703 160.703 0 88.754 71.949 160.703 160.703 160.702z"
                            fill="#ee3e38" stroke="transparent"></path>
                        <ellipse rx="164.56874808852186" ry="164.56874808852186" cx="171.42577925887693"
                            cy="171.42577925887693" fill="#ee3e38" stroke="transparent" stroke-width="0"></ellipse>
                    </g>
                    <!-- Text "SK" in the center -->
                    <g transform="matrix(1, 0, 0, 1, 0, 0)">
                        <text x="50%" y="50%" dominant-baseline="middle" text-anchor="middle" font-size="150"
                            font-family="Arial" fill="#ffffff">SK</text>
                    </g>
                </svg>
            </g>
        </svg>
    </g>
</svg>